<svg width="112" height="100" viewBox="0 0 112 100" fill="none" xmlns="http://www.w3.org/2000/svg">
<path d="M103.16 0.657471H8.83957C4.08423 0.657471 0.215332 4.52637 0.215332 9.28171V65.1755C0.215332 69.9308 4.08423 73.7997 8.83957 73.7997H43.7732C44.6775 73.7997 45.4107 73.0666 45.4107 72.1622C45.4107 71.2579 44.6775 70.5247 43.7732 70.5247H8.83957C5.89008 70.5247 3.49036 68.125 3.49036 65.1755V9.28171C3.49036 6.33222 5.89008 3.9325 8.83957 3.9325H103.16C106.11 3.9325 108.51 6.33222 108.51 9.28171V65.1755C108.51 66.0798 109.243 66.813 110.147 66.813C111.051 66.813 111.785 66.0798 111.785 65.1755V9.28171C111.785 4.52637 107.916 0.657471 103.16 0.657471Z" fill="black"/>
<path d="M45.5198 58.2979H14.0795C13.1752 58.2979 12.442 59.031 12.442 59.9354C12.442 60.8397 13.1752 61.5729 14.0795 61.5729H45.5198C46.4241 61.5729 47.1573 60.8397 47.1573 59.9354C47.1573 59.031 46.4241 58.2979 45.5198 58.2979Z" fill="black"/>
<path d="M33.1838 28.4953V21.5086C33.1838 18.6794 30.8822 16.3777 28.053 16.3777H17.5729C14.7437 16.3777 12.442 18.6794 12.442 21.5086V28.4953C12.442 31.3245 14.7437 33.6262 17.5729 33.6262H28.053C30.8822 33.6262 33.1838 31.3245 33.1838 28.4953ZM15.717 28.4953V26.6394H17.5729C18.4772 26.6394 19.2104 25.9063 19.2104 25.0019C19.2104 24.0976 18.4772 23.3644 17.5729 23.3644H15.717V21.5086C15.717 20.4852 16.5496 19.6527 17.5729 19.6527H21.1754V30.3511H17.5729C16.5496 30.3511 15.717 29.5186 15.717 28.4953ZM28.053 30.3511H24.4504V19.6527H28.053C29.0763 19.6527 29.9088 20.4852 29.9088 21.5086V23.3644H28.053C27.1486 23.3644 26.4155 24.0976 26.4155 25.0019C26.4155 25.9063 27.1486 26.6394 28.053 26.6394H29.9088V28.4953C29.9088 29.5186 29.0763 30.3511 28.053 30.3511Z" fill="black"/>
<path d="M12.442 49.4553C12.442 50.3597 13.1752 51.0929 14.0795 51.0929C14.9839 51.0929 15.717 50.3597 15.717 49.4553V45.962C15.717 45.0576 14.9839 44.3245 14.0795 44.3245C13.1752 44.3245 12.442 45.0576 12.442 45.962V49.4553Z" fill="black"/>
<path d="M17.6821 45.962V49.4553C17.6821 50.3597 18.4153 51.0929 19.3196 51.0929C20.224 51.0929 20.9572 50.3597 20.9572 49.4553V45.962C20.9572 45.0576 20.224 44.3245 19.3196 44.3245C18.4153 44.3245 17.6821 45.0576 17.6821 45.962Z" fill="black"/>
<path d="M22.9222 45.962V49.4553C22.9222 50.3597 23.6554 51.0929 24.5598 51.0929C25.4641 51.0929 26.1973 50.3597 26.1973 49.4553V45.962C26.1973 45.0576 25.4641 44.3245 24.5598 44.3245C23.6554 44.3245 22.9222 45.0576 22.9222 45.962Z" fill="black"/>
<path d="M28.1622 45.962V49.4553C28.1622 50.3597 28.8954 51.0929 29.7997 51.0929C30.7041 51.0929 31.4373 50.3597 31.4373 49.4553V45.962C31.4373 45.0576 30.7041 44.3245 29.7997 44.3245C28.8954 44.3245 28.1622 45.0576 28.1622 45.962Z" fill="black"/>
<path d="M38.424 49.4553V45.962C38.424 45.0576 37.6908 44.3245 36.7864 44.3245C35.8821 44.3245 35.1489 45.0576 35.1489 45.962V49.4553C35.1489 50.3597 35.8821 51.0929 36.7864 51.0929C37.6908 51.0929 38.424 50.3597 38.424 49.4553Z" fill="black"/>
<path d="M43.6641 49.4553V45.962C43.6641 45.0576 42.9309 44.3245 42.0266 44.3245C41.1222 44.3245 40.389 45.0576 40.389 45.962V49.4553C40.389 50.3597 41.1222 51.0929 42.0266 51.0929C42.9309 51.0929 43.6641 50.3597 43.6641 49.4553Z" fill="black"/>
<path d="M47.2665 44.3245C46.3622 44.3245 45.629 45.0576 45.629 45.962V49.4553C45.629 50.3597 46.3622 51.0929 47.2665 51.0929C48.1709 51.0929 48.9041 50.3597 48.9041 49.4553V45.962C48.9041 45.0576 48.1709 44.3245 47.2665 44.3245Z" fill="black"/>
<path d="M54.144 49.4553V45.962C54.144 45.0576 53.4109 44.3245 52.5065 44.3245C51.6022 44.3245 50.869 45.0576 50.869 45.962V49.4553C50.869 50.3597 51.6022 51.0929 52.5065 51.0929C53.4109 51.0929 54.144 50.3597 54.144 49.4553Z" fill="black"/>
<path d="M90.9335 33.6262C95.6889 33.6262 99.5578 29.7573 99.5578 25.0019C99.5578 20.2466 95.6889 16.3777 90.9335 16.3777H80.4535C75.6981 16.3777 71.8292 20.2466 71.8292 25.0019C71.8292 29.7573 75.6981 33.6262 80.4535 33.6262H90.9335ZM75.1042 25.0019C75.1042 22.0524 77.504 19.6527 80.4535 19.6527H90.9335C93.883 19.6527 96.2828 22.0524 96.2828 25.0019C96.2828 27.9514 93.883 30.3511 90.9335 30.3511H80.4535C77.504 30.3511 75.1042 27.9514 75.1042 25.0019Z" fill="black"/>
<path d="M76.9602 44.3245C61.6103 44.3245 49.1224 56.8124 49.1224 72.1622C49.1224 87.512 61.6103 99.9999 76.9602 99.9999C92.31 99.9999 104.798 87.512 104.798 72.1622C104.798 56.8124 92.31 44.3245 76.9602 44.3245ZM76.9602 96.7249C63.4162 96.7249 52.3975 85.7062 52.3975 72.1622C52.3975 58.6182 63.4162 47.5995 76.9602 47.5995C90.5041 47.5995 101.523 58.6182 101.523 72.1622C101.523 85.7062 90.5041 96.7249 76.9602 96.7249Z" fill="black"/>
<path d="M91.5224 62.271L71.7201 82.0733L62.3978 72.7511C61.7583 72.1116 60.7215 72.1116 60.0822 72.7511C59.4427 73.3906 59.4427 74.4275 60.0822 75.0668L70.5622 85.5468C70.8819 85.8665 71.3011 86.0265 71.7201 86.0265C72.1391 86.0265 72.5583 85.8667 72.8779 85.5468L93.8381 64.5867C94.4776 63.9472 94.4776 62.9103 93.8381 62.271C93.1988 61.6315 92.1617 61.6315 91.5224 62.271Z" fill="black"/>
</svg>
