<svg width="118" height="106" viewBox="0 0 118 106" fill="none" xmlns="http://www.w3.org/2000/svg">
<path d="M62.6859 28.3149H26.2935V34.3804H62.6859V28.3149Z" fill="black"/>
<path d="M62.6859 50.5547H26.2935V56.6202H62.6859V50.5547Z" fill="black"/>
<path d="M48.5332 72.7944H26.2935V78.8599H48.5332V72.7944Z" fill="black"/>
<path d="M104.852 13.9629C86.839 16.4446 68.0159 60.0182 59.5268 75.6575C57.3945 79.5868 62.3533 82.8661 64.5478 79.1049C66.1293 76.4019 74.7555 59.3765 74.7555 59.3765C84.1517 59.6865 87.6171 53.1255 83.8616 49.0504C96.4899 49.311 102.749 42.361 99.1675 38.1437C102.934 39.3364 106.196 38.5385 111.041 35.8968C121.38 30.2575 120.898 11.3821 104.852 13.9629Z" fill="black"/>
<path d="M80.8941 64.7608V96.1322C80.8941 97.0619 80.1358 97.8183 79.208 97.8201H9.77349C8.84539 97.8183 8.08922 97.0619 8.08738 96.1322V9.86774C8.08945 8.93757 8.84562 8.18163 9.77349 8.17956H79.208C80.1361 8.18163 80.8941 8.9378 80.8941 9.86774V25.5306C83.5398 21.9669 86.2287 18.8138 88.9812 16.1957V9.86797C88.9771 4.46786 84.6099 0.0965557 79.2077 0.0924072H9.77349C4.37338 0.0965557 0.00207422 4.46786 0 9.86797V96.1324C0.00207422 101.533 4.37338 105.904 9.77349 105.908H79.208C84.6102 105.904 88.9773 101.532 88.9814 96.1324V59.6153C87.1096 62.0814 84.3216 63.8583 80.8941 64.7608Z" fill="black"/>
</svg>
