<svg width="118" height="121" viewBox="0 0 118 121" fill="none" xmlns="http://www.w3.org/2000/svg">
<path d="M62.6859 28.2225H26.2935V34.288H62.6859V28.2225Z" fill="black"/>
<path d="M62.6859 50.4622H26.2935V56.5277H62.6859V50.4622Z" fill="black"/>
<path d="M48.5332 72.702H26.2935V78.7675H48.5332V72.702Z" fill="black"/>
<path d="M104.852 13.8705C86.8391 16.3522 68.016 59.9258 59.527 75.5651C57.3947 79.4944 62.3534 82.7737 64.5479 79.0125C66.1294 76.3096 74.7556 59.2841 74.7556 59.2841C84.1519 59.5941 87.6172 53.0331 83.8617 48.958C96.49 49.2186 102.749 42.2686 99.1676 38.0513C102.935 39.2439 106.196 38.4461 111.042 35.8044C121.38 30.1651 120.898 11.2897 104.852 13.8705Z" fill="black"/>
<path d="M80.8941 64.6684V96.0398C80.8941 96.9695 80.1358 97.7259 79.208 97.7277H9.77349C8.84539 97.7259 8.08922 96.9695 8.08738 96.0398V9.77533C8.08945 8.84516 8.84562 8.08922 9.77349 8.08715H79.208C80.1361 8.08922 80.8941 8.84539 80.8941 9.77533V25.4382C83.5398 21.8745 86.2287 18.7214 88.9812 16.1033V9.77556C88.9771 4.37545 84.6099 0.00414844 79.2077 0H9.77349C4.37338 0.00414844 0.00207422 4.37545 0 9.77556V96.04C0.00207422 101.44 4.37338 105.811 9.77349 105.815H79.208C84.6102 105.811 88.9773 101.44 88.9814 96.04V59.5229C87.1096 61.989 84.3216 63.7659 80.8941 64.6684Z" fill="black"/>
<circle cx="73.6778" cy="96.3172" r="21.9269" fill="white" stroke="white" stroke-width="5"/>
<circle cx="73.6778" cy="96.3172" r="17.9505" stroke="black" stroke-width="5"/>
<path fill-rule="evenodd" clip-rule="evenodd" d="M77.1349 94.0857C77.1349 97.2275 74.5881 99.7744 71.4464 99.7744C68.3046 99.7744 65.7578 97.2275 65.7578 94.0857C65.7578 90.944 68.3046 88.3971 71.4464 88.3971C74.5881 88.3971 77.1349 90.944 77.1349 94.0857ZM76.0975 100.078C74.813 101.076 73.1991 101.671 71.4464 101.671C67.2574 101.671 63.8616 98.2747 63.8616 94.0857C63.8616 89.8968 67.2574 86.5009 71.4464 86.5009C75.6353 86.5009 79.0311 89.8968 79.0311 94.0857C79.0311 95.8385 78.4366 97.4524 77.4382 98.7368L83.494 104.793L82.1532 106.133L76.0975 100.078Z" fill="black"/>
</svg>
