<svg width="91" height="116" viewBox="0 0 91 116" fill="none" xmlns="http://www.w3.org/2000/svg">
<path d="M2.48549 0H60.5191C61.1177 0.00479825 61.6215 0.19073 62.0737 0.547L82.6498 15.0869C83.3576 15.5247 83.8302 16.308 83.8302 17.2017V96.8946C83.8302 98.2669 82.717 99.3789 81.3459 99.3789H2.48549C1.11319 99.3789 0 98.2669 0 96.8946V2.48429C0 1.11199 1.11319 0 2.48549 0ZM18.9339 62.3593C15.6663 62.3593 15.6663 57.3907 18.9339 57.3907H64.8963C68.1651 57.3907 68.1651 62.3593 64.8963 62.3593H18.9339ZM18.9339 86.9563C15.6663 86.9563 15.6663 81.9877 18.9339 81.9877H64.8963C68.1651 81.9877 68.1651 86.9563 64.8963 86.9563H18.9339ZM18.9339 74.6584C15.6663 74.6584 15.6663 69.6886 18.9339 69.6886H64.8963C68.1651 69.6886 68.1651 74.6584 64.8963 74.6584H18.9339ZM34.7141 35.2156C38.4292 37.9925 40.6292 42.3446 40.6292 46.9965C40.6292 48.3688 39.5172 49.4807 38.1449 49.4807H13.7182C12.3459 49.4807 11.2327 48.3688 11.2327 46.9965C11.2327 42.3446 13.4339 37.9925 17.1477 35.2156C15.8294 33.415 15.0497 31.1934 15.0497 28.7907C15.0497 22.7821 19.9223 17.9095 25.9309 17.9095C31.9407 17.9095 36.8122 22.7821 36.8122 28.7907C36.8122 31.1934 36.0337 33.415 34.7141 35.2156ZM21.1039 38.5455C18.8367 39.8411 17.1813 41.9871 16.5204 44.5122H35.3427C34.6817 41.9871 33.0264 39.8411 30.758 38.5455C29.3041 39.2665 27.6643 39.6719 25.9309 39.6719C24.1976 39.6719 22.559 39.2665 21.1039 38.5455ZM25.9309 22.8793C22.6657 22.8793 20.0195 25.5255 20.0195 28.7907C20.0195 32.0571 22.6657 34.7033 25.9309 34.7033C29.1961 34.7033 31.8436 32.0571 31.8436 28.7907C31.8436 25.5255 29.1973 22.8793 25.9309 22.8793ZM78.8616 19.686H60.5191C59.148 19.686 58.0348 18.5728 58.0348 17.2017V4.96859H4.96979V94.4104H78.8616V19.686ZM63.0034 7.27655V14.7174H73.5332L63.0034 7.27655Z" fill="black"/>
<circle cx="64.9722" cy="90.6824" r="22.7385" fill="white" stroke="white" stroke-width="5"/>
<circle cx="64.9723" cy="90.6824" r="18.6299" stroke="black" stroke-width="5"/>
<path fill-rule="evenodd" clip-rule="evenodd" d="M68.5443 88.3768C68.5443 91.6229 65.9128 94.2544 62.6667 94.2544C59.4206 94.2544 56.7891 91.6229 56.7891 88.3768C56.7891 85.1307 59.4206 82.4992 62.6667 82.4992C65.9128 82.4992 68.5443 85.1307 68.5443 88.3768ZM67.4724 94.5677C66.1452 95.5993 64.4777 96.2136 62.6667 96.2136C58.3386 96.2136 54.83 92.7049 54.83 88.3768C54.83 84.0486 58.3386 80.54 62.6667 80.54C66.9948 80.54 70.5035 84.0486 70.5035 88.3768C70.5035 90.1878 69.8892 91.8553 68.8576 93.1823L75.1146 99.4394L73.7292 100.825L67.4724 94.5677Z" fill="black"/>
</svg>
