<svg width="98" height="112" viewBox="0 0 98 112" fill="none" xmlns="http://www.w3.org/2000/svg">
<g clip-path="url(#clip0_2_173)">
<path d="M22.5505 48.9998C23.7778 48.9998 24.7727 48.0049 24.7727 46.7776C24.7727 45.5504 23.7778 44.5555 22.5505 44.5555C21.3233 44.5555 20.3284 45.5504 20.3284 46.7776C20.3284 48.0049 21.3233 48.9998 22.5505 48.9998Z" fill="black"/>
<path d="M90.3282 0.333233C89.6615 -0.111159 88.7726 -0.111159 88.1061 0.333233L82.5505 4.11104L77.217 0.555524C76.5503 0.111132 75.4393 0.111132 74.7726 0.555524L69.217 4.11104L63.8837 0.555524C63.2171 0.111132 62.106 0.111132 61.4393 0.555524L55.8837 4.11104L50.5504 0.555524C49.8838 0.111132 48.7727 0.111132 48.106 0.555524L42.5504 4.11104L37.2172 0.555524C36.5505 0.111132 35.4394 0.111132 34.7727 0.555524L29.2171 4.11104L23.8837 0.555524C23.217 0.111132 22.1059 0.111132 21.4392 0.555524L15.8839 4.11104L10.5504 0.555524C9.88371 0.111132 8.99492 0.111132 8.32824 0.555524C7.43927 0.777816 6.99487 1.4445 6.99487 2.33328V95.6665C6.99487 96.5555 7.43927 97.222 8.10595 97.6665C8.77263 98.1109 9.66142 98.1109 10.3281 97.6665L15.8837 93.8887L21.2169 97.4443C21.8836 97.8886 22.9947 97.8886 23.6614 97.4443L28.9947 93.8887L34.3279 97.4443C34.9946 97.8886 36.1057 97.8886 36.7724 97.4443L42.1057 93.8887L47.4389 97.4443C48.1056 97.8886 49.2167 97.8886 49.8834 97.4443L55.2167 93.8887L60.5499 97.4443C61.2166 97.8886 62.3277 97.8886 62.9944 97.4443L68.3277 93.8887L73.6609 97.4443C74.3276 97.8886 75.4387 97.8886 76.1054 97.4443L81.4387 93.8887L86.7719 97.4443C87.2163 97.6665 87.6609 97.8886 88.1053 97.8886C88.5497 97.8886 88.772 97.8886 89.2164 97.6663C89.8831 97.222 90.3275 96.5553 90.3275 95.6663V2.33328C91.4393 1.4445 90.9949 0.777816 90.3282 0.333233ZM83.8837 89.2221C83.217 88.7777 82.1059 88.7777 81.4392 89.2221L75.8837 92.9999L70.5504 89.4444C70.106 89.2221 69.6614 89 69.217 89C68.7726 89 68.328 89.2223 67.8836 89.4444L62.5504 92.9999L57.2171 89.4444C56.5504 89 55.4393 89 54.7726 89.4444L49.2171 92.9999L43.8838 89.4444C43.2171 89 42.106 89 41.4394 89.4444L35.8838 92.9999L30.5505 89.4444C29.8838 89 28.7728 89 28.1061 89.4444L22.5505 92.9999L17.2172 89.4444C16.5505 89 15.4395 89 14.7728 89.4444L11.6615 91.6666V6.55549L14.7726 8.77764C15.4393 9.22203 16.5504 9.22203 17.217 8.77764L22.5503 4.99983L27.8838 8.55554C28.5505 8.99993 29.6615 8.99993 30.3282 8.55554L35.8838 5.00002L41.2171 8.55554C41.8838 8.99993 42.9948 8.99993 43.6615 8.55554L49.2171 5.00002L54.5504 8.55554C55.217 8.99993 56.3281 8.99993 56.9948 8.55554L62.5504 5.00002L67.8836 8.55554C68.5503 8.99993 69.6614 8.99993 70.3281 8.55554L75.8837 5.00002L81.2171 8.55554C81.8838 8.99993 82.9949 8.99993 83.6616 8.55554L86.7727 6.33339V91.2858L83.8837 89.2221Z" fill="black"/>
<path d="M71.4394 57.8888H66.9949C65.6616 57.8888 64.7728 56.9998 64.7728 55.6667C64.7728 54.3335 65.6618 53.4445 66.9949 53.4445H73.6616C74.995 53.4445 75.8837 52.5555 75.8837 51.2224C75.8837 49.8892 74.9948 49.0002 73.6616 49.0002H71.4394V46.7781C71.4394 45.4447 70.5505 44.5559 69.2173 44.5559C67.8841 44.5559 66.9951 45.4449 66.9951 46.7781V49.0002C63.2173 49.0002 60.3285 51.889 60.3285 55.6669C60.3285 59.4447 63.2173 62.3335 66.9951 62.3335H71.4396C72.773 62.3335 73.6618 63.2225 73.6618 64.5556C73.6618 65.889 72.7728 66.7778 71.4396 66.7778H64.773C63.4396 66.7778 62.5508 67.6668 62.5508 68.9999C62.5508 70.3331 63.4398 71.2221 64.773 71.2221H66.9951V73.4443C66.9951 74.7776 67.8841 75.6664 69.2173 75.6664C70.5505 75.6664 71.4394 74.7774 71.4394 73.4443V71.2221C75.2172 71.2221 78.1061 68.3333 78.1061 64.5555C78.1061 60.7778 75.2171 57.8888 71.4394 57.8888Z" fill="black"/>
<path d="M66.9949 20.1111H31.4393C30.1059 20.1111 29.2172 21.0001 29.2172 22.3332C29.2172 23.6664 30.1061 24.5554 31.4393 24.5554H66.9949C68.3282 24.5554 69.217 23.6664 69.217 22.3332C69.217 21.0001 68.3282 20.1111 66.9949 20.1111Z" fill="black"/>
<path d="M58.1059 29.0001H40.3281C38.9947 29.0001 38.106 29.889 38.106 31.2222C38.106 32.5556 38.9949 33.4444 40.3281 33.4444H58.1059C59.4393 33.4444 60.328 32.5554 60.328 31.2222C60.3282 29.8888 59.4393 29.0001 58.1059 29.0001Z" fill="black"/>
<path d="M42.5505 44.5555H31.4393C30.1059 44.5555 29.2172 45.4445 29.2172 46.7776C29.2172 48.1108 30.1061 48.9998 31.4393 48.9998H42.5505C43.8838 48.9998 44.7726 48.1108 44.7726 46.7776C44.7726 45.4445 43.8838 44.5555 42.5505 44.5555Z" fill="black"/>
<path d="M22.5505 57.8888C23.7778 57.8888 24.7727 56.8939 24.7727 55.6667C24.7727 54.4394 23.7778 53.4445 22.5505 53.4445C21.3233 53.4445 20.3284 54.4394 20.3284 55.6667C20.3284 56.8939 21.3233 57.8888 22.5505 57.8888Z" fill="black"/>
<path d="M44.7726 53.4445H31.4393C30.1059 53.4445 29.2172 54.3335 29.2172 55.6667C29.2172 56.9998 30.1061 57.8888 31.4393 57.8888H44.7726C46.106 57.8888 46.9948 56.9998 46.9948 55.6667C46.9948 54.3335 46.106 53.4445 44.7726 53.4445Z" fill="black"/>
<path d="M22.5505 66.7776C23.7778 66.7776 24.7727 65.7827 24.7727 64.5555C24.7727 63.3282 23.7778 62.3333 22.5505 62.3333C21.3233 62.3333 20.3284 63.3282 20.3284 64.5555C20.3284 65.7827 21.3233 66.7776 22.5505 66.7776Z" fill="black"/>
<path d="M40.3284 62.3333H31.4396C30.1062 62.3333 29.2174 63.2223 29.2174 64.5555C29.2174 65.8888 30.1064 66.7776 31.4396 66.7776H40.3284C41.6617 66.7776 42.5505 65.8886 42.5505 64.5555C42.5505 63.2223 41.6615 62.3333 40.3284 62.3333Z" fill="black"/>
<path d="M22.5505 75.6666C23.7778 75.6666 24.7727 74.6717 24.7727 73.4444C24.7727 72.2172 23.7778 71.2223 22.5505 71.2223C21.3233 71.2223 20.3284 72.2172 20.3284 73.4444C20.3284 74.6717 21.3233 75.6666 22.5505 75.6666Z" fill="black"/>
<path d="M49.2171 71.2221H31.4393C30.1059 71.2221 29.2172 72.1111 29.2172 73.4443C29.2172 74.7774 30.1061 75.6664 31.4393 75.6664H49.2171C50.5505 75.6664 51.4392 74.7774 51.4392 73.4443C51.4392 72.1111 50.5505 71.2221 49.2171 71.2221Z" fill="black"/>
</g>
<circle cx="75.1762" cy="89.1762" r="20.1762" fill="white" stroke="white" stroke-width="5"/>
<circle cx="75.1763" cy="89.1762" r="16.4848" stroke="black" stroke-width="5"/>
<path fill-rule="evenodd" clip-rule="evenodd" d="M78.3857 87.1048C78.3857 90.0213 76.0213 92.3857 73.1048 92.3857C70.1882 92.3857 67.8239 90.0213 67.8239 87.1048C67.8239 84.1882 70.1882 81.8238 73.1048 81.8238C76.0213 81.8238 78.3857 84.1882 78.3857 87.1048ZM77.4225 92.6672C76.2301 93.5941 74.7319 94.146 73.1048 94.146C69.216 94.146 66.0636 90.9935 66.0636 87.1048C66.0636 83.216 69.216 80.0635 73.1048 80.0635C76.9935 80.0635 80.1459 83.216 80.1459 87.1048C80.1459 88.7319 79.594 90.2301 78.6672 91.4224L84.289 97.0443L83.0442 98.2889L77.4225 92.6672Z" fill="black"/>
<defs>
<clipPath id="clip0_2_173">
<rect width="98" height="98" fill="white"/>
</clipPath>
</defs>
</svg>
