<svg width="117" height="121" viewBox="0 0 117 121" fill="none" xmlns="http://www.w3.org/2000/svg">
<path d="M56.2363 60.3816C57.523 59.1977 59.0957 58.5346 60.7161 58.5346H117V66.0172H62.6224C60.7637 66.0172 59.7629 67.0591 59.191 67.58C56.8081 69.8059 40.8428 84.3922 40.8428 84.3922L36.0293 79.7037C36.0293 79.7511 53.9963 62.4654 56.2363 60.3816ZM88.453 19.701C94.8391 19.701 98.3181 15.2967 98.3181 9.89785C98.3181 4.49902 93.886 0.0947162 88.453 0.0947162C83.02 0.0947162 78.5878 4.49902 78.5878 9.89785C78.5878 15.2967 83.02 19.701 88.453 19.701ZM73.822 36.5131H77.1104L72.2493 53.7988H104.609L99.7479 36.5131H103.036L108.04 53.7988H116.571L109.708 30.8775C108.803 27.7045 104.752 22.1162 97.7939 22.1162H79.0167C72.0587 22.1162 68.0077 27.7519 67.1022 30.8775L60.2872 53.7988H68.8179L73.822 36.5131ZM45.8945 52.899L41.7006 45.1323L37.2208 36.7973C37.2208 36.7973 36.6965 36.0395 35.7434 36.4658C34.8855 36.892 35.2668 37.8391 35.2668 37.8391L38.1263 43.2853L39.9373 46.6951L37.888 45.7479C34.2183 44.0904 32.2167 43.4274 31.4065 43.0485C31.2635 43.0012 30.5487 42.575 30.2151 41.8646C29.2619 39.7335 25.1633 29.4568 24.2578 27.1836C23.4953 25.2419 21.589 22.5425 17.6334 21.5479C13.1536 20.4587 8.62607 23.2528 7.5776 27.7045L1.47739 53.3726C0.953157 55.4564 0 61.0446 0 63.3652C0 65.7331 0.0476578 113.375 0.0476578 113.375C0.0476578 117.638 3.09776 121 7.33931 121C11.5809 121 14.488 117.543 14.4403 113.328C14.4403 113.328 14.4403 86.0971 14.4403 70.9425L20.9695 43.6168C21.732 45.4638 22.6851 47.737 22.9711 48.2579C23.7336 49.5366 24.4485 50.4364 25.9259 51.0994C25.9259 51.0994 34.4566 54.6039 37.745 56.1194C39.7466 56.8771 41.8912 56.2141 43.1303 54.6513L43.6069 53.7041L43.7499 53.9883C43.7499 53.9883 44.7031 55.6932 46.1804 55.7879C46.6094 54.4618 45.8945 52.899 45.8945 52.899ZM32.6933 9.80313C32.6933 4.40431 28.2611 0 22.8281 0C17.3951 0.0473581 13.0106 4.40431 13.0106 9.80313C13.0106 15.202 17.4428 19.6063 22.8758 19.6063C28.3088 19.6063 32.6933 15.2493 32.6933 9.80313ZM37.1255 73.7366L56.3316 55.9773L53.8534 53.3252L34.6472 71.0845L37.1255 73.7366Z" fill="black"/>
</svg>
